<svg xmlns="http://www.w3.org/2000/svg" viewBox="0 0 115.07 74.6"><defs><style>.cls-1{fill:none;stroke:#000;stroke-miterlimit:10;}</style></defs><title>アセット 1</title><g id="レイヤー_2" data-name="レイヤー 2"><g id="デザイン"><path d="M19,10.38a9.63,9.63,0,0,1-3.57,8,10.83,10.83,0,0,1-7,2.1H.55c-.37,0-.55-.1-.55-.29s.31-.27.93-.27c.79,0,1.28-.14,1.48-.43a3.23,3.23,0,0,0,.11-1.1V2.73a3.51,3.51,0,0,0-.21-1.66A2.75,2.75,0,0,0,.81.84C.37.84.15.74.15.52S.31.29.64.29h5a25.91,25.91,0,0,1,7.4.73,7.89,7.89,0,0,1,4.26,3.44A10.9,10.9,0,0,1,19,10.38Zm-3.25-.11q0-4.83-1.89-7.09C12.58,1.68,10.61.93,8,.93c-1.3,0-2.08.13-2.35.41a2.89,2.89,0,0,0-.18,1.39V18.21a5.78,5.78,0,0,0,0,1,.51.51,0,0,0,.24.29,7.86,7.86,0,0,0,2.93.35,6.37,6.37,0,0,0,5-2.21Q15.72,15.29,15.72,10.27Z"/><path d="M39.82,10.5a10.76,10.76,0,0,1-2.6,7.31,8.11,8.11,0,0,1-6.36,3,8.68,8.68,0,0,1-6.73-3,10.75,10.75,0,0,1-2.73-7.47A10.57,10.57,0,0,1,24,2.89,8.64,8.64,0,0,1,30.74,0a8.23,8.23,0,0,1,6.47,3A11,11,0,0,1,39.82,10.5Zm-3.25.14c0-3.54-.73-6.31-2.18-8.29A4.44,4.44,0,0,0,30.59.49,4.58,4.58,0,0,0,27,1.92q-2.36,2.61-2.35,8.52a13.59,13.59,0,0,0,1.64,7.27,5.14,5.14,0,0,0,4.59,2.59A4.49,4.49,0,0,0,35,17.86,14.55,14.55,0,0,0,36.57,10.64Z"/><path d="M58.7,14s0,.24-.06.78c-.08,1.09-.12,2.17-.12,3.25,0,.14,0,.38.06.74A11.9,11.9,0,0,1,58.64,20v.26c0,.25-.08.38-.23.38s-.29-.15-.41-.44A2.51,2.51,0,0,0,57.19,19a7.4,7.4,0,0,1-5,1.82,9.28,9.28,0,0,1-7.06-3,10.49,10.49,0,0,1-2.8-7.5,10.76,10.76,0,0,1,2.57-7.43A8.44,8.44,0,0,1,51.5,0a8.88,8.88,0,0,1,2.37.25,9.9,9.9,0,0,1,2.19,1,2.14,2.14,0,0,0,.95.37c.18,0,.34-.15.5-.46.25-.54.45-.81.61-.81a.21.21,0,0,1,.23.23,2,2,0,0,1-.06.38A28,28,0,0,0,58,6.18a1.25,1.25,0,0,1-.09.64.32.32,0,0,1-.23.08c-.19,0-.32-.18-.38-.55A9.61,9.61,0,0,0,56.2,2.9,4.84,4.84,0,0,0,51.74.58,4.66,4.66,0,0,0,48,2.15C46.38,4,45.56,6.77,45.56,10.38c0,3.23.67,5.74,2,7.51a5.6,5.6,0,0,0,4.7,2.32A5.24,5.24,0,0,0,55,19.46,5.07,5.07,0,0,0,57,17.39,12.35,12.35,0,0,0,58,14.21c.09-.46.22-.7.38-.7S58.7,13.66,58.7,14Z"/><path d="M76.53,5.48c0,.25-.12.38-.35.38s-.39-.25-.49-.76l-.12-1a4.88,4.88,0,0,0-.66-1.77,2.89,2.89,0,0,0-2-1.22A6.56,6.56,0,0,0,71.46.93C70.55,1,70,1,69.8,1V18.5c0,.7.19,1.13.55,1.31A5.76,5.76,0,0,0,72,20c.23,0,.35.1.35.25s-.16.24-.47.24l-.4,0c-1.16,0-2-.06-2.47-.06-.64,0-1.24,0-1.8,0s-1.27,0-2.14,0c-.45,0-.67-.07-.67-.23s.41-.27,1.25-.29c.6,0,1-.12,1.16-.38a3,3,0,0,0,.14-1.19V1a14.18,14.18,0,0,0-3.57.29c-1.21.44-1.93,1.63-2.14,3.56-.06.58-.2.87-.41.87s-.35-.2-.35-.61q0-.31,0-.63l.06-.67c.06-.89.15-2.06.26-3.51h1.31L68,.38c.7,0,1.78,0,3.25,0L76.1.29c0,1.08.16,2.69.37,4.81a1,1,0,0,0,0,.22A1.16,1.16,0,0,1,76.53,5.48Z"/><path d="M96.63,10.5A10.76,10.76,0,0,1,94,17.81a8.11,8.11,0,0,1-6.36,3,8.7,8.7,0,0,1-6.73-3,10.75,10.75,0,0,1-2.73-7.47,10.57,10.57,0,0,1,2.63-7.4A8.64,8.64,0,0,1,87.55,0,8.23,8.23,0,0,1,94,3,11,11,0,0,1,96.63,10.5Zm-3.25.14c0-3.54-.73-6.31-2.18-8.29A4.42,4.42,0,0,0,87.41.49a4.58,4.58,0,0,0-3.6,1.43q-2.36,2.61-2.35,8.52a13.59,13.59,0,0,0,1.64,7.27,5.14,5.14,0,0,0,4.6,2.59,4.48,4.48,0,0,0,4.14-2.44A14.55,14.55,0,0,0,93.38,10.64Z"/><path d="M115.07,19.58c0,.81-.68,1.21-2,1.21a4,4,0,0,1-3.54-1.88,4.62,4.62,0,0,1-.71-1.57c-.1-.5-.26-1.78-.48-3.83a3.5,3.5,0,0,0-1.19-2.62,5.78,5.78,0,0,0-3.3-.83V19.2c0,.38.31.63.93.72.17,0,.62,0,1.33.06.25,0,.38.08.38.23s-.17.26-.5.26H99.15c-.43,0-.64-.08-.64-.26s.28-.21.84-.23c.91,0,1.4-.13,1.48-.35A2.7,2.7,0,0,0,101,18.5v-16c0-.77-.08-1.23-.25-1.39A2.88,2.88,0,0,0,99.21.84c-.49,0-.73-.09-.73-.26s.16-.29.47-.29l.26,0,3.85.09,1.63,0c.77,0,1.31-.08,1.62-.08a6.91,6.91,0,0,1,4.28,1.2,3.91,3.91,0,0,1,1.58,3.27,4.14,4.14,0,0,1-1.62,3.35,8,8,0,0,1-4.41,1.55c-.18,0-.27.05-.29.09s.1.11.29.11q3,.53,4.19,2.14c.76,1.07,1.27,3,1.52,5.83.16,1.59.7,2.38,1.63,2.38.29,0,.43-.05.43-.17a.09.09,0,0,0,0-.06,1.26,1.26,0,0,1-.14-.52c0-.41.21-.61.63-.61S115.07,19.09,115.07,19.58Zm-6-14.53q0-4.15-3.6-4.15a2.32,2.32,0,0,0-1.3.26,1.06,1.06,0,0,0-.35.93V9.45a6.1,6.1,0,0,0,4-1A4.23,4.23,0,0,0,109.07,5.05Z"/><path d="M22.52,69.9c0,.81,0,2.49,0,3.39,0,.42-.18.56-.39.56a.48.48,0,0,1-.45-.28,2.28,2.28,0,0,1-.31-1,1.51,1.51,0,0,1,.1-.38,2.58,2.58,0,0,0,.07-.66c0-.76,0-1.36.06-2.68s0-2.64,0-3.93a4.84,4.84,0,0,0-.07-1.08.56.56,0,0,0-.28-.3,3.19,3.19,0,0,0-.53-.21c-.1,0-.14-.07-.14-.12s.07-.11.14-.16a1,1,0,0,1,.43-.14,2.71,2.71,0,0,1,1.14.34c.33.17.56.39.56.64a.68.68,0,0,1-.2.44.77.77,0,0,0-.12.49c0,.53-.06,1.34-.06,2.35a8.78,8.78,0,0,1,2.33.53c1,.41,1.37.87,1.37,1.36s-.23.59-.45.59-.39-.08-.7-.43A5.87,5.87,0,0,0,24,68.26a6,6,0,0,0-1.46-.68Zm2.91-6.85a3.09,3.09,0,0,1,1.22.7c.34.3.54.55.54.84a.39.39,0,0,1-.4.42c-.18,0-.33-.12-.46-.38a4.81,4.81,0,0,0-1.18-1.34.22.22,0,0,1-.09-.14.14.14,0,0,1,.15-.14A1,1,0,0,1,25.43,63.05Zm1.22-.94a3.32,3.32,0,0,1,1.12.55c.34.24.65.56.65.88A.4.4,0,0,1,28,64c-.18,0-.29-.07-.45-.34a4.24,4.24,0,0,0-1.29-1.31.2.2,0,0,1-.1-.14.14.14,0,0,1,.14-.14A1.5,1.5,0,0,1,26.65,62.11Z"/><path d="M35.13,67.39a13.08,13.08,0,0,1-2,1.67.52.52,0,0,1-.27.1c-.11,0-.18-.07-.18-.2s.12-.24.32-.42a18.05,18.05,0,0,0,3.28-4.05,2.16,2.16,0,0,0,.32-.81c0-.15-.14-.33-.5-.54-.1-.06-.19-.09-.19-.16s.26-.17.51-.17a2.55,2.55,0,0,1,1.06.49c.34.23.48.4.48.61a.47.47,0,0,1-.28.4c-.14.09-.21.18-.6.72h.18a6.07,6.07,0,0,0,.8-.08l1.54-.25a.58.58,0,0,0,.32-.19.46.46,0,0,1,.32-.17,1.52,1.52,0,0,1,.72.38c.32.25.53.45.53.68s-.14.28-.32.36a.77.77,0,0,0-.45.41,22,22,0,0,1-2.83,4,14.71,14.71,0,0,1-4.74,3.52.68.68,0,0,1-.26.07.19.19,0,0,1-.17-.19c0-.08.06-.14.18-.22a18.21,18.21,0,0,0,4.34-3.75,19.57,19.57,0,0,0,2.65-4.11.26.26,0,0,0,0-.11.07.07,0,0,0-.07-.06c-.21,0-1,.16-1.53.27a4.54,4.54,0,0,1-.82.11,2.09,2.09,0,0,1-.73-.18A17.05,17.05,0,0,1,35.13,67.39Z"/><path d="M53.34,64.52a.76.76,0,0,0,.43-.21.43.43,0,0,1,.28-.15c.15,0,.32.08.64.33s.52.47.52.66-.11.28-.29.38a1.53,1.53,0,0,0-.51.55c-.49.82-1,1.62-1.59,2.43,1,.66,1.3,1.21,1.3,1.6a.51.51,0,0,1-.46.53c-.21,0-.37-.09-.62-.4a6.56,6.56,0,0,0-.82-1,13.8,13.8,0,0,1-5.76,4.31.68.68,0,0,1-.21.06.19.19,0,0,1-.2-.17c0-.09.06-.16.18-.23a16.76,16.76,0,0,0,5.34-4.56,9,9,0,0,0-1.68-1c-.1,0-.15-.11-.15-.16a.14.14,0,0,1,.14-.15,1.39,1.39,0,0,1,.32,0,10.62,10.62,0,0,1,1.85.63,23.43,23.43,0,0,0,1.65-2.74.45.45,0,0,0,0-.17s0-.09-.1-.09-.86.15-1.37.24a5.07,5.07,0,0,1-.77.12,2.09,2.09,0,0,1-.71-.16c-.52.7-1.14,1.47-1.73,2.12a11.36,11.36,0,0,1-2,1.82.4.4,0,0,1-.21.07.2.2,0,0,1-.22-.18.35.35,0,0,1,.11-.23,21.23,21.23,0,0,0,2-2.25,19.86,19.86,0,0,0,1.47-2.22,2.18,2.18,0,0,0,.32-.85.28.28,0,0,0-.11-.24A1.32,1.32,0,0,0,50,63c-.09,0-.12-.07-.12-.14s.22-.21.46-.21a1.81,1.81,0,0,1,.92.34c.44.28.61.52.61.71a.41.41,0,0,1-.2.38,1,1,0,0,0-.28.27c-.1.14-.21.29-.32.46A19.43,19.43,0,0,0,53.34,64.52Z"/><path d="M61,69.19c-.28,0-.62-.31-1-.81a1.47,1.47,0,0,1-.32-.73c0-.19,0-.35.12-.35s.13.07.23.16c.49.48.68.58,1,.58s.83,0,1.78-.09c1.91-.11,3.8-.18,5-.22a1.66,1.66,0,0,0,.85-.17,1.19,1.19,0,0,1,.44-.1,1.94,1.94,0,0,1,.57.13c.66.25.75.41.75.66s-.19.42-.49.42c-.54,0-1.29-.06-2-.06-1.25,0-3.73.09-5.56.24a3,3,0,0,0-1,.21A.73.73,0,0,1,61,69.19Z"/><path d="M72.61,73.49A15.84,15.84,0,0,0,73.34,71a8.33,8.33,0,0,0,.17-1.56c1,.3,1.28.4,1.28.55s-.11.2-.42.27a9.6,9.6,0,0,1-1.58,3.33C72.74,73.64,72.58,73.57,72.61,73.49Zm2.52-5.2c-.42.09-.92.18-1.6.29-.09.33-.16.41-.29.41s-.21-.22-.41-1.3l.65,0c.29,0,.54,0,.78,0a19.56,19.56,0,0,0,1.85-2.86,7.24,7.24,0,0,0,.52-1.24c.77.33,1.27.61,1.27.78s-.08.23-.54.23a18.23,18.23,0,0,1-2.69,3.08c.8,0,1.6-.07,2.39-.14a4.49,4.49,0,0,0-.53-1.14s.06-.11.1-.08c1,.6,1.48,1.32,1.48,1.88,0,.33-.19.66-.5.66s-.38-.17-.43-.76l-.05-.3c-.37.12-.74.21-1.12.3v2.67c0,1.53,0,2.93,0,3.35s-.19.45-.58.45-.45-.11-.45-.36.1-1.18.1-2.88Zm-.06-2.73c0,.34-.19.6-.47.6s-.31-.07-.48-.6a3.59,3.59,0,0,0-1-1.51s0-.13.08-.12a5.07,5.07,0,0,1,1.09.48,14.51,14.51,0,0,0,.59-1.47,7.26,7.26,0,0,0,.29-1.22c.92.34,1.36.53,1.36.69s-.11.22-.53.25a11.85,11.85,0,0,1-1.46,1.92A1.27,1.27,0,0,1,75.07,65.56Zm2,6a5.07,5.07,0,0,0-.56-2s.07-.1.11-.07A3,3,0,0,1,78,71.65c0,.45-.19.76-.5.76S77.11,72.28,77.05,71.58ZM81.6,63c-.18,2.58-1.16,4.17-3.19,5.19-.06,0-.17-.09-.11-.14,1.49-1.23,2.11-2.66,2.24-5.05H79.3a3.64,3.64,0,0,0-.93.11l-.16-.56a5.23,5.23,0,0,0,1.08.1h4.46c.43-.46.5-.52.6-.52s.19.06.63.42c.21.18.25.27.25.36s-.06.14-.39.4a14.44,14.44,0,0,1-.46,3.36,2.13,2.13,0,0,1-.59,1.05A1.27,1.27,0,0,1,83,68c-.18,0-.24,0-.27-.22-.07-.43-.26-.57-1.26-.8-.08,0-.07-.21,0-.19.75.08,1.17.12,1.41.12s.47-.14.63-.77A12.83,12.83,0,0,0,83.84,63Zm-1.81,11c0,.31-.21.45-.61.45s-.45-.13-.45-.39.06-1.07.06-3.32c0-1.14,0-1.7-.05-2.42a7.79,7.79,0,0,1,1.18.61h3.46c.42-.46.49-.52.58-.52s.18.06.65.45c.24.2.3.27.3.35s-.09.23-.41.42v1.09c0,2,.06,2.93.06,3.21s-.23.46-.65.46-.42-.09-.42-.36v-.7h-3.7Zm3.7-4.72h-3.7V73h3.7Z"/><path d="M86.74,68.65c-.09,0-.19-.15-.1-.21a14.74,14.74,0,0,0,5.07-5.15,6.33,6.33,0,0,0,.61-1.53c1.38.37,1.64.48,1.64.65s-.09.17-.47.26a10.05,10.05,0,0,0,3,3.18,9.51,9.51,0,0,0,3.33,1.42c.07,0,.06.14,0,.15-.38.09-.58.27-.75.83,0,.14-.12.21-.22.21a1.33,1.33,0,0,1-.5-.2,12.34,12.34,0,0,1-2.4-1.69,13.15,13.15,0,0,1-2.68-3.7A12.67,12.67,0,0,1,86.74,68.65Zm.43,5.73c2.56-1.37,3.35-2.8,3.35-6.24A10.68,10.68,0,0,0,90.46,67c1.28.11,1.54.15,1.54.34s-.1.21-.4.35c-.09,4.28-1,5.74-4.36,6.94C87.14,74.62,87.09,74.43,87.17,74.38Zm8.25-5c0,2.86.07,4.26.07,4.69s-.22.45-.63.45-.49-.11-.49-.38.06-1.37.06-4c0-1.81,0-2.62-.09-3.19,1.35.12,1.54.18,1.54.35s-.08.19-.46.36Z"/><line class="cls-1" x1="37.14" y1="42.61" x2="77.14" y2="42.61"/></g></g></svg>