<svg xmlns="http://www.w3.org/2000/svg" viewBox="0 0 102.08 21.35"><defs><style>.cls-1{fill:#fff;}</style></defs><title>アセット 6</title><g id="レイヤー_2" data-name="レイヤー 2"><g id="デザイン"><path class="cls-1" d="M14.22,20.21H5.87A5.87,5.87,0,0,1,0,14.34V6A5.88,5.88,0,0,1,5.87.12h8.35A5.88,5.88,0,0,1,20.09,6v8.34A5.87,5.87,0,0,1,14.22,20.21ZM5.87,2a4,4,0,0,0-4,4v8.34a4,4,0,0,0,4,4h8.35a4,4,0,0,0,4-4V6a4,4,0,0,0-4-4Z"/><circle class="cls-1" cx="15.41" cy="4.81" r="1.25"/><path class="cls-1" d="M10.05,15.36a5.2,5.2,0,1,1,5.19-5.19A5.2,5.2,0,0,1,10.05,15.36Zm0-8.51a3.32,3.32,0,1,0,3.31,3.32A3.32,3.32,0,0,0,10.05,6.85Z"/><path class="cls-1" d="M30.68.07a7.09,7.09,0,0,0-3.77,4.76c-.68,2.9,2.14,4.12,2.37,3.72s-.51-.63-.67-2.13a6.33,6.33,0,0,1,1.84-5.07c.21-.18.2.07.2.53,0,.81,0,8.12,0,9.65a13.2,13.2,0,0,1-.24,3.36c-.15.65-.4,1.09-.21,1.26s1.11-.26,1.63-1a5.39,5.39,0,0,0,.89-3.06c0-1.38,0-3.56,0-4.8s0-4.48,0-6.49C32.68.32,31.32-.2,30.68.07Zm71.06,10.85c-.23,0-.33.23-.41.62-.29,1.35-.6,1.65-1,1.65s-.84-.67-.94-2a45.23,45.23,0,0,1,0-4.91c0-.4-.09-.79-1.15-1.18-.45-.16-1.12-.41-1.44.39a19.76,19.76,0,0,0-1.39,4.77l-.06,0a37.15,37.15,0,0,1-.19-3.86,1.16,1.16,0,0,0-.58-1.11c-.3-.2-1.25-.54-1.59-.13a9,9,0,0,0-1,2.32c-.28.88-.48,1.47-.48,1.47V5.65a.45.45,0,0,0-.3-.47,6.27,6.27,0,0,0-1.19-.24c-.33,0-.41.18-.41.44,0,0-.05,3.11-.05,5.26v.3c-.18,1-.76,2.33-1.39,2.33s-.93-.56-.93-3.12c0-1.49,0-2.14.06-3.22,0-.63,0-1.11,0-1.21,0-.34-.58-.5-.85-.57a2.56,2.56,0,0,0-.68-.07.42.42,0,0,0-.44.42v.36a2.42,2.42,0,0,0-1.23-1,2.34,2.34,0,0,0-2.71,1A6.21,6.21,0,0,0,80.37,9a9.36,9.36,0,0,0,.11,2.87c-.22,1-.64,1.36-1.09,1.36-.66,0-1.14-1.08-1.08-2.94A16.92,16.92,0,0,1,78.86,7a1.08,1.08,0,0,0-.21-1.07,1.34,1.34,0,0,0-1.33-.22c-.46.11-1.13.23-1.73.32,0,0,0-.15.06-.41.16-1.35-1.31-1.24-1.78-.81a1.66,1.66,0,0,0-.55,1.11,1.32,1.32,0,0,0,.6,1.28,13.63,13.63,0,0,1-1.39,3.46A14.85,14.85,0,0,1,71.65,12v-.48c0-2.24,0-4,0-4.63s0-1.09,0-1.2-.15-.34-.45-.45a3.05,3.05,0,0,0-.89-.2c-.4,0-.64.18-.64.44v.34a2.37,2.37,0,0,0-1.22-1,2.33,2.33,0,0,0-2.71,1A6.76,6.76,0,0,0,64.71,9a9.84,9.84,0,0,0,.06,2.7c-.15.75-.59,1.54-1.09,1.54s-1-.56-1-3.12c0-1.49,0-2.14.07-3.22,0-.63,0-1.11,0-1.21,0-.34-.58-.5-.84-.57a2.85,2.85,0,0,0-.71-.07.46.46,0,0,0-.42.4v.38a2.41,2.41,0,0,0-1.22-1,2.34,2.34,0,0,0-2.71,1A5.92,5.92,0,0,0,55.78,9a11,11,0,0,0-.08,1.37c-.2,1.2-1.07,2.6-1.79,2.6-.42,0-.81-.81-.81-2.54,0-2.3.14-5.58.16-5.89l1.08,0c.45,0,.86,0,1.46,0,.3,0,.59-1.09.28-1.22a9.59,9.59,0,0,0-1.53-.13c-.33,0-1.25-.07-1.25-.07s.08-2.18.1-2.41L53,.33A5.7,5.7,0,0,0,52,0c-.5-.1-.73,0-.78.43-.07.65-.1,2.55-.1,2.55-.37,0-1.64-.08-2-.08s-.72,1.49-.24,1.51L51,4.5s0,3.33,0,4.36v.32A5,5,0,0,1,49.4,12a2.72,2.72,0,0,0-1.25-2.87c-.35-.28-1.06-.82-1.85-1.4a4.64,4.64,0,0,0,.86-1.36c.29-.65.3-1.38-.4-1.54a2.12,2.12,0,0,0-2.42,1.5,1.76,1.76,0,0,0,.33,1.78l.11.12c-.27.51-.63,1.19-.94,1.72-.85,1.48-1.49,2.64-2,2.64s-.38-1.18-.38-2.29c0-.95.07-2.39.13-3.87a1.1,1.1,0,0,0-.64-1,2.9,2.9,0,0,0-1.09-.45c-.47,0-1.8.06-3.06,3.71-.16.46-.48,1.3-.48,1.3l0-4.39-.18-.27a3,3,0,0,0-1.28-.35q-.36,0-.36.33l0,6.87a10.32,10.32,0,0,0,.07,1.4,1.53,1.53,0,0,0,.23.61.7.7,0,0,0,.43.26c.18,0,1.18.17,1.23-.21a13.37,13.37,0,0,1,.59-2.8A11.27,11.27,0,0,1,39.43,6.6l.19.06c0,.62-.1,2.2-.15,3.54-.14,3.59.52,4.25,1.45,4.25.71,0,1.72-.71,2.8-2.5l1.79-3c.32.31.69.63,1.06,1a2.35,2.35,0,0,1,.94,2.3c-.14.56-.67,1.14-1.63.58-.27-.17-.39-.29-.67-.48l-.51,0a1.85,1.85,0,0,0-.68,1c-.11.41.3.63.73.82a5.82,5.82,0,0,0,1.66.33c2,.06,3.53-1,4.63-3.56.19,2.26,1,3.53,2.47,3.53,1,0,1.94-1.25,2.37-2.48a4.27,4.27,0,0,0,.53,1.3c1.12,1.78,3.29,1.39,4.37-.11a2.62,2.62,0,0,0,.39-.63,2.05,2.05,0,0,0,1.95,1.92,2.16,2.16,0,0,0,2-1.55l.21.37c1.11,1.78,3.28,1.39,4.37-.11l.13-.19,0,.93-1,.92c-1.68,1.54-2.95,2.71-3,4.06a2.29,2.29,0,0,0,2.35,2.46,3,3,0,0,0,2.69-1.4,8,8,0,0,0,.84-4.06c0-.65,0-1.48,0-2.37A19.36,19.36,0,0,0,73.54,11a19.68,19.68,0,0,0,1.74-3.74s.62,0,1.28,0c.22,0,.28,0,.24.19s-.84,3.23-.12,5.25a2.55,2.55,0,0,0,2.26,1.84A2.24,2.24,0,0,0,80.85,13l.15.27c1.12,1.78,3.27,1.39,4.37-.11a3.9,3.9,0,0,0,.39-.63,2.11,2.11,0,0,0,2,1.92c.68,0,1.32-.28,1.85-1.52a5.89,5.89,0,0,0,.11,1.14l.37.24a2.8,2.8,0,0,0,1.49.08c.16,0,.29-.17.31-.5a20.06,20.06,0,0,1,.28-3.48,10.64,10.64,0,0,1,1.07-2.94c.11-.19.24-.23.24,0,0,.43,0,1.69.21,3.37A7.75,7.75,0,0,0,94.15,13a1.21,1.21,0,0,0,1.22.7c.24,0,.74-.07.7-.49a12.74,12.74,0,0,1,.46-3.31,15.59,15.59,0,0,1,1-2.67h.09a23.5,23.5,0,0,0,.22,5c.45,2,1.76,2.21,2.22,2.21,1,0,1.78-.74,2-2.7C102.12,11.28,102,10.92,101.74,10.92ZM60.8,9.71a6.56,6.56,0,0,1-.58,2.53c-.59,1.14-1.75,1.5-2.26-.15a8.83,8.83,0,0,1-.09-3.67c.23-1.3.8-2.21,1.69-2.13S60.92,7.56,60.8,9.71Zm8.93,0a6.94,6.94,0,0,1-.58,2.52c-.57,1.15-1.76,1.5-2.26-.15a8.34,8.34,0,0,1-.09-3.5c.22-1.19.75-2.3,1.69-2.3S69.87,7.3,69.73,9.72ZM70,16.39c0,1.79-.3,3.35-.9,3.81a1.08,1.08,0,0,1-1.76-1.15c.21-1.15,1.2-2.32,2.66-3.76ZM85.39,9.74a6.39,6.39,0,0,1-.58,2.5c-.57,1.15-1.76,1.5-2.26-.15a9.09,9.09,0,0,1-.09-3.64c.2-1.28.76-2.24,1.69-2.16S85.49,7.56,85.39,9.74Z"/></g></g></svg>