<?xml version="1.0" standalone="no"?>
<!DOCTYPE svg PUBLIC "-//W3C//DTD SVG 20010904//EN"
 "http://www.w3.org/TR/2001/REC-SVG-20010904/DTD/svg10.dtd">
<svg version="1.0" xmlns="http://www.w3.org/2000/svg"
 width="260.000000pt" height="260.000000pt" viewBox="0 0 260.000000 260.000000"
 preserveAspectRatio="xMidYMid meet">
<metadata>
Created by potrace 1.11, written by Peter Selinger 2001-2013
</metadata>
<g transform="translate(0.000000,260.000000) scale(0.100000,-0.100000)"
fill="#000000" stroke="none">
<path d="M470 1853 c-30 -8 -59 -19 -64 -24 -6 -5 -16 -9 -23 -9 -24 0 -119
-67 -171 -119 -92 -92 -148 -219 -159 -352 -21 -276 165 -532 433 -594 57 -14
127 -16 443 -13 361 4 378 5 438 27 169 62 299 196 354 363 33 102 33 242 0
346 -61 188 -208 325 -404 377 -77 21 -769 19 -847 -2z"/>
<path d="M1900 1712 l-55 -3 0 -420 0 -420 60 3 60 3 2 313 c1 173 3 316 6
318 2 2 34 -44 71 -103 37 -60 127 -202 201 -318 124 -196 135 -210 167 -215
18 -3 48 -3 66 -1 l32 3 0 420 0 419 -61 -3 -61 -3 0 -314 c0 -196 -3 -310 -9
-304 -11 11 -118 179 -281 440 -62 99 -120 183 -128 185 -8 1 -40 2 -70 0z"/>
</g>
</svg>
