<svg xmlns="http://www.w3.org/2000/svg" xmlns:xlink="http://www.w3.org/1999/xlink" viewBox="0 0 572.97 178.81"><defs><style>.cls-1{fill:#606060;}.cls-2{fill:url(#名称未設定グラデーション_55);}</style><linearGradient id="名称未設定グラデーション_55" x1="38.78" y1="21.73" x2="117.19" y2="157.54" gradientUnits="userSpaceOnUse"><stop offset="0" stop-color="#ffb864"/><stop offset="1" stop-color="#c2426a"/></linearGradient></defs><g id="レイヤー_2" data-name="レイヤー 2"><g id="レイヤー_1-2" data-name="レイヤー 1"><path class="cls-1" d="M184.48,75.65,194.8,60.93h7.33L191.8,75.65Zm10.79-25.36-3.16,4.55H185l4.39-6.25V15.92H220.7L218,11.21h6.55l2.7,4.71h8.4L233,11.21h6.79l2.69,4.71h4.24V21.7h-16.1l6.32,10.94,5.24-7.48h6.62L239.89,37.8,249.29,54h-6.55l-6.39-11-7.79,11h-6.63l11.41-16.26L224,21.7H195.27ZM224.4,24.93v5H197.12v-5Zm-1.7,7.56V49H199.27V32.49Zm-14.56,20V71h30V76.8H202.28V52.52Zm9-8.17V37.11H204.82v7.24Zm10.25,22.12h-7.1l-8.94-12.79h7.09Zm11.17-7.63,10.95,15.57h-7.4L231.26,58.84Z"/><path class="cls-1" d="M282.82,34.1l-11,15.42h-6.86L276,34.1Zm47.39,36.15v6.47L300.62,61.08v16h-6V61.54L265.09,77V70.64L290,57.53H265.86V51.75h28.75V45.36h6v6.39h28.82v5.78H306.17ZM280,25.32v5.39l-14.18-3.77v-5.4Zm1.39-10v5.39l-13.18-3.46V11.75Zm-.62,33.29,17.11-24H285.2V19.08h16.57l5.63-7.87h7l-5.62,7.87h13.33V43.2h7.48v5.47H316.26v-24h-11.4l-17.11,24Z"/><path class="cls-1" d="M410.52,15.3v5.55h-51V61.23L353.1,77.11h-6.32l7-17.42v-7.4L346,61.7V52.6l7.78-9.48V34.88h-3.47l-4.85-13h6.24l2.08,5.62V15.3H379V10.83h5.86V15.3ZM389.86,70.48h21.27v5.7H361v-5.7h8.55V45h5.63V70.48h8.94V34.26h-21.5v-5.7h46.86v5.7H389.86V46.44h15.72v5.7H389.86Z"/><path class="cls-1" d="M448.58,53.6h-5.93l-1.93-3V77.11h-5.55V52.22l-8.24,13.41V55.22l8.24-13.49V30.48h-8.24V24.93h8.24V11.21h5.55V24.93h5.78v5.55h-5.78V41.35Zm43.47-24L470.39,17.07,448.2,29.87V23.32l22.35-12.88,21.5,12.49Zm0,41.24v6.55L470,65.93l-21.5,11V70.48L467.16,61V54.76H451.59V35.18h15.57V31.41H455.44V26h29.37v5.4H472.86v3.77h15.8V54.76h-15.8v6.17ZM457.29,49.52h9.87v-9.1h-9.87Zm25.59-9.1h-10v9.1h10Z"/><path class="cls-1" d="M559.87,70.79H573v5.55H507.85V70.79H521v-30h38.92ZM537.44,39.65V28.71l-29,18.34v-6.7l27.67-17.5H509.39V17.38h28.05V10.83h5.86v6.55h28.13v5.47H544.84l27.59,17.5v6.7L543.3,28.63v11Zm16.8,6.48H526.58v4.31h27.66Zm0,13.87V55.68H526.58V60Zm-27.66,5.24v5.55h27.66V65.24Z"/><path class="cls-2" d="M150.86,123V55.77a7.28,7.28,0,1,0-7.1-12.3L85.25,9.69a7,7,0,0,0,.44-2.39,7.31,7.31,0,0,0-14.61,0,7.41,7.41,0,0,0,.44,2.41L13.06,43.47A7.28,7.28,0,1,0,6,55.77v67.52a7.29,7.29,0,1,0,6.86,11.91l58.71,33.9a7.29,7.29,0,1,0,14.17,2.41,7.09,7.09,0,0,0-.44-2.4l58.51-33.77a7.28,7.28,0,1,0,7.1-12.3Zm-72.47.11a7.28,7.28,0,0,0-5.24,2.23l-23-13.29a7.23,7.23,0,0,0-5.52-9.57V76.25a7.29,7.29,0,0,0,5.91-7.16,7,7,0,0,0-.43-2.35L72.88,53.59a7.21,7.21,0,0,0,11,0l22.81,13.17a7,7,0,0,0-.42,2.35,7.29,7.29,0,0,0,5.9,7.16v26.28a7.3,7.3,0,0,0-5.9,7.16,7.22,7.22,0,0,0,.43,2.38L83.63,125.39A7.27,7.27,0,0,0,78.39,123.15Zm-69.73.14V56.08a7.21,7.21,0,0,0,5-2.5L36.36,66.69a7.14,7.14,0,0,0-.44,2.4,7.28,7.28,0,0,0,6,7.17v26.26a7.23,7.23,0,0,0-5.52,9.57L12.81,125.71A7.25,7.25,0,0,0,8.66,123.29ZM114.9,102.52V76.26a7.28,7.28,0,0,0,6-7.17,7.14,7.14,0,0,0-.44-2.4l22.72-13.11a7.21,7.21,0,0,0,5,2.5v66.65a7.21,7.21,0,0,0-5,2.5l-22.72-13.12a7.16,7.16,0,0,0,.44-2.42A7.3,7.3,0,0,0,114.9,102.52Zm27.23-56.86a7.19,7.19,0,0,0-.76,3.17,7.3,7.3,0,0,0,.44,2.4L119.1,64.35a7.21,7.21,0,0,0-11,0L85.25,51.23a7.09,7.09,0,0,0,.44-2.4,7.3,7.3,0,0,0-5.93-7.16V14.47A7.26,7.26,0,0,0,83.9,12ZM77.05,14.47v27.2a7.2,7.2,0,0,0-5.53,9.57L48.76,64.38a7.21,7.21,0,0,0-11,0L15,51.23a7.3,7.3,0,0,0,.44-2.4,7.19,7.19,0,0,0-.76-3.17l58.2-33.61A7.27,7.27,0,0,0,77.05,14.47ZM14.17,132.86a7.4,7.4,0,0,0,.44-2.4,7.3,7.3,0,0,0-.44-2.4l23.59-13.62a7.23,7.23,0,0,0,11,0l22.87,13.2a7.28,7.28,0,0,0,5.4,10v26.72a7.27,7.27,0,0,0-4.17,2.42Zm65.59,31.48V137.62a7.3,7.3,0,0,0,5.93-7.16,7.21,7.21,0,0,0-.56-2.8l22.93-13.24a7.22,7.22,0,0,0,11,0l22.73,13.13a7.3,7.3,0,0,0-.44,2.4,7.19,7.19,0,0,0,.76,3.17L83.9,166.77A7.26,7.26,0,0,0,79.76,164.34Z"/><path class="cls-1" d="M244.9,107l-36.61,52.26h-7.17l32.61-46.55h-24.9l-12.64,18.11H189L209.83,101h7.25l-4.24,6Z"/><path class="cls-1" d="M283.35,132.22l-5.93,7V102.47h5.93Zm28.37-30.45h5.93v37l-17.42,20.81h-7.71l19.2-22.89Z"/><path class="cls-1" d="M405.35,155.11H351.71v-6h53.64Zm-4.93-37.84H356.64v-6h43.78Z"/><path class="cls-1" d="M445,133h-5.24v-17.5H445ZM475,117.27h6.47l-24.66,42h-6.47ZM456.29,133h-5.24v-17.5h5.24Z"/><path class="cls-1" d="M568.58,107,532,159.27H524.8l32.6-46.55H532.51l-12.64,18.11h-7.24L533.51,101h7.25l-4.24,6Z"/></g></g></svg>