<?xml version="1.0" standalone="no"?>
<!DOCTYPE svg PUBLIC "-//W3C//DTD SVG 20010904//EN"
 "http://www.w3.org/TR/2001/REC-SVG-20010904/DTD/svg10.dtd">
<svg version="1.0" xmlns="http://www.w3.org/2000/svg"
 width="260.000000pt" height="260.000000pt" viewBox="0 0 260.000000 260.000000"
 preserveAspectRatio="xMidYMid meet">
<metadata>
Created by potrace 1.11, written by Peter Selinger 2001-2013
</metadata>
<g transform="translate(0.000000,260.000000) scale(0.100000,-0.100000)"
fill="#000000" stroke="none">
<path d="M1234 2546 c-31 -31 -36 -42 -32 -71 l4 -35 -251 -144 c-137 -79
-325 -187 -417 -240 l-166 -96 -34 15 c-97 40 -182 -64 -127 -153 7 -12 22
-26 34 -32 20 -11 21 -15 20 -490 l0 -479 -34 -23 c-44 -29 -57 -68 -42 -119
19 -62 88 -87 152 -54 l29 16 308 -177 c169 -97 356 -205 416 -240 l108 -63 2
-41 c3 -54 40 -92 92 -95 69 -4 103 26 113 100 6 38 8 40 150 123 79 46 163
94 185 106 23 13 143 82 268 154 225 131 227 131 260 118 73 -30 148 19 148
96 0 31 -36 88 -55 88 -10 0 -15 11 -16 33 -1 40 -1 894 0 924 1 12 9 24 21
28 23 7 50 53 50 85 0 37 -30 81 -65 96 -30 12 -40 12 -76 0 l-42 -15 -201
117 c-111 64 -212 122 -226 129 -14 8 -108 62 -210 121 -170 98 -185 109 -188
137 -7 73 -37 105 -104 113 -33 3 -43 -1 -74 -32z m366 -264 c25 -14 115 -66
200 -115 85 -49 214 -123 285 -164 l130 -74 -3 -43 c-4 -42 -5 -44 -80 -87
-42 -24 -83 -47 -92 -52 -8 -4 -44 -25 -79 -46 l-64 -39 -34 18 c-38 20 -88
17 -115 -7 -15 -13 -32 -5 -176 77 l-160 92 -5 46 c-5 45 -32 82 -68 94 -10 3
-13 48 -14 184 0 98 1 186 3 196 2 9 15 19 28 22 13 4 24 11 24 16 0 5 39 -14
88 -42 48 -28 107 -62 132 -76z m-342 101 l28 -18 0 -188 -1 -187 -31 -19
c-34 -21 -57 -67 -52 -102 3 -21 -15 -34 -157 -116 -154 -88 -161 -91 -184
-76 -33 21 -96 21 -119 0 -18 -17 -26 -13 -180 75 l-161 92 -3 40 c-3 41 -2
41 62 80 36 21 85 49 110 63 24 14 101 58 170 98 303 176 476 275 482 275 4 0
20 -8 36 -17z m-718 -665 c155 -90 159 -93 158 -124 -1 -39 24 -81 58 -96 l24
-11 0 -187 0 -187 -24 -11 c-35 -16 -60 -59 -58 -97 2 -29 -2 -34 -55 -64 -32
-17 -107 -60 -168 -95 -97 -57 -112 -63 -126 -50 -8 8 -21 14 -27 14 -7 0 -12
10 -13 23 -3 65 -4 905 -1 922 3 16 22 31 70 54 1 0 74 -40 162 -91z m764 60
c19 -1 46 6 60 15 24 16 27 16 64 -5 295 -170 280 -160 280 -195 0 -40 24 -80
58 -95 l24 -11 0 -187 0 -187 -24 -11 c-34 -15 -59 -57 -58 -95 1 -31 -4 -35
-160 -125 -160 -92 -161 -93 -193 -78 -33 16 -89 14 -111 -5 -11 -9 -49 8
-179 82 -145 83 -164 96 -159 116 8 32 -23 90 -57 105 l-29 13 0 187 c0 173 1
187 18 192 36 12 66 55 66 95 l0 38 160 91 c152 87 162 91 183 76 13 -8 39
-15 57 -16z m967 9 l36 -16 -1 -470 -1 -471 -38 -19 -38 -19 -157 91 -158 91
-1 39 c-1 40 -29 81 -65 93 -17 5 -18 19 -18 192 l0 187 34 19 c37 20 55 54
51 96 -3 23 12 34 153 117 87 50 159 90 162 89 3 -1 21 -9 41 -19z m-1528
-861 c36 -24 73 -26 109 -6 l35 18 159 -91 c157 -91 159 -92 156 -124 -4 -40
23 -89 58 -103 l26 -11 0 -188 0 -189 -32 -17 -33 -17 -416 238 -416 239 3 39
3 39 160 93 c88 51 161 93 163 93 1 1 13 -5 25 -13z m1019 -6 c37 -21 81 -19
109 6 15 13 33 5 177 -77 l160 -91 4 -43 3 -43 -415 -239 c-360 -208 -417
-238 -431 -227 -8 8 -21 14 -27 14 -15 0 -14 -12 -16 195 -1 94 2 178 6 187 4
9 17 20 28 23 28 9 53 61 48 101 -2 19 -1 34 3 34 4 0 76 40 161 89 84 49 154
90 155 90 1 1 17 -8 35 -19z"/>
</g>
</svg>
